<svg xmlns="http://www.w3.org/2000/svg" xmlns:xlink="http://www.w3.org/1999/xlink" viewBox="0,0,256,256" width="100px" height="100px"><g transform="translate(38.4,38.4) scale(0.7,0.7)"><g fill="none" fill-rule="nonzero" stroke="none" stroke-width="none" stroke-linecap="butt" stroke-linejoin="none" stroke-miterlimit="10" stroke-dasharray="" stroke-dashoffset="0" font-family="none" font-weight="none" font-size="none" text-anchor="none" style="mix-blend-mode: normal"><path transform="scale(2.56,2.56)" d="M82.01172,13c1.4948,0 2.47971,1.71643 1.72656,3.00781l-23.74805,41.28125v0.00195l15.72461,26.68164c0.77223,1.28921 -0.21068,3.02734 -1.71484,3.02734h-11.5625c-1.41997,0 -2.73658,-0.75515 -3.45312,-1.98047l-15.72266,-26.89062c-0.00672,-0.01094 -0.01323,-0.02201 -0.01953,-0.0332c-0.32083,-0.60155 -0.30871,-1.32524 0.02148,-1.91602c0.00193,-0.00392 0.00388,-0.00783 0.00586,-0.01172l23.64258,-41.16016c0.71245,-1.24113 2.03845,-2.00781 3.46875,-2.00781zM33.50781,27c1.40543,0 2.71054,0.74163 3.43164,1.94727l0.00195,0.00195l7.80273,13.05664c0.00813,0.01349 0.01595,0.02716 0.02344,0.04102c0.32083,0.60155 0.31067,1.32719 -0.01953,1.91797c-0.00322,0.00458 -0.00647,0.00914 -0.00977,0.01367l-11.66406,20.03516c-0.71622,1.22742 -2.03448,1.98633 -3.45703,1.98633h-11.61719c-1.48215,0 -2.47091,-1.68629 -1.74414,-2.97852c0.00257,-0.00458 0.00517,-0.00914 0.00781,-0.01367l11.75586,-20.15234v-0.00391l-7.75781,-12.86719c-0.00954,-0.01537 -0.01866,-0.03101 -0.02734,-0.04687c-0.68729,-1.29303 0.30359,-2.9375 1.76758,-2.9375z" id="strokeMainSVG" fill="#dddddd" stroke="#dddddd" stroke-width="13" stroke-linejoin="round"></path><g transform="scale(2.56,2.56)" fill="#000000" stroke="none" stroke-width="1" stroke-linejoin="miter"><path d="M70.38086,13c-1.4303,0 -2.7563,0.76668 -3.46875,2.00781l-23.64258,41.16016c-0.00198,0.00389 -0.00393,0.0078 -0.00586,0.01172c-0.3302,0.59078 -0.34231,1.31447 -0.02148,1.91602c0.0063,0.01119 0.01281,0.02226 0.01953,0.0332l15.72266,26.89063c0.71655,1.22532 2.03315,1.98047 3.45313,1.98047h11.5625c1.50416,0 2.48707,-1.73813 1.71484,-3.02734l-15.72461,-26.68164v-0.00195l23.74805,-41.28125c0.75315,-1.29138 -0.23176,-3.00781 -1.72656,-3.00781zM70.38086,15h11.63086c-0.00131,0.00195 -0.00261,0.0039 -0.00391,0.00586l-23.75586,41.29688c-0.00263,0.00389 -0.00524,0.00779 -0.00781,0.01172c-0.33103,0.59227 -0.33918,1.31464 -0.02148,1.91406c0.00752,0.0132 0.01533,0.02622 0.02344,0.03906l15.74805,26.72461c0.00194,0.00261 0.00389,0.00522 0.00586,0.00781h-11.5625c-0.71203,0 -1.36711,-0.37556 -1.72656,-0.99023l-15.70117,-26.85352v-0.00195l23.63672,-41.15039c0.35755,-0.62287 1.01668,-1.00391 1.73438,-1.00391zM71.25586,17.99414c-0.18326,-0.00144 -0.35263,0.09748 -0.44141,0.25781l-0.57227,1c-0.0986,0.15546 -0.10381,0.35252 -0.01356,0.51297c0.09025,0.16045 0.26136,0.25834 0.44542,0.25481c0.18406,-0.00353 0.35129,-0.1079 0.43533,-0.27169l0.57422,-1c0.09082,-0.15413 0.09239,-0.34503 0.00411,-0.50062c-0.08828,-0.1556 -0.25295,-0.25218 -0.43184,-0.25328zM69.5332,20.99414c-0.18285,-0.00184 -0.35212,0.09628 -0.44141,0.25586l-1.72266,3c-0.13807,0.23947 -0.05587,0.54552 0.18359,0.68359c0.23947,0.13807 0.54552,0.05587 0.68359,-0.18359l1.72266,-3c0.09166,-0.15394 0.09396,-0.34515 0.00603,-0.50125c-0.08793,-0.1561 -0.25265,-0.25322 -0.43181,-0.25461zM22.00195,27c-1.46399,0 -2.45487,1.64447 -1.76758,2.9375c0.00869,0.01587 0.01781,0.0315 0.02734,0.04688l7.75781,12.86719v0.00195v0.00195l-11.75586,20.15234c-0.00264,0.00454 -0.00524,0.00909 -0.00781,0.01367c-0.72677,1.29223 0.26199,2.97852 1.74414,2.97852h11.61719c1.42256,0 2.74081,-0.75891 3.45703,-1.98633l11.66406,-20.03516c0.00329,-0.00453 0.00655,-0.00909 0.00977,-0.01367c0.3302,-0.59078 0.34036,-1.31642 0.01953,-1.91797c-0.00749,-0.01385 -0.0153,-0.02753 -0.02344,-0.04102l-7.80273,-13.05664l-0.00195,-0.00195c-0.7211,-1.20563 -2.02621,-1.94727 -3.43164,-1.94727zM65.51172,27.99414c-0.18215,-0.00112 -0.3505,0.0969 -0.43945,0.25586l-16.5957,28.89258l14.38867,24.60938c0.0869,0.16045 0.25429,0.26082 0.43675,0.2619c0.18246,0.00108 0.35103,-0.09732 0.43981,-0.25672c0.08879,-0.15941 0.0837,-0.35452 -0.01328,-0.50908l-14.0957,-24.10937l16.30664,-28.38867c0.09183,-0.15424 0.09394,-0.34586 0.00554,-0.50209c-0.08841,-0.15623 -0.25377,-0.25308 -0.43327,-0.25377zM22.00195,29h11.50586c0.70562,0 1.35366,0.36974 1.71484,0.97461l7.7793,13.01367l0.00977,-0.01562l-0.00781,0.01563h-0.00195l-11.65625,20.01758c-0.35978,0.61658 -1.01507,0.99414 -1.72852,0.99414h-11.61523l11.75391,-20.1543c0.0033,-0.00518 0.00656,-0.01039 0.00977,-0.01562c0.33103,-0.59227 0.33918,-1.31464 0.02148,-1.91406c-0.00866,-0.01653 -0.01777,-0.03281 -0.02734,-0.04883zM32.625,31.99414c-0.1761,0.0096 -0.33412,0.11126 -0.41587,0.26754c-0.08174,0.15627 -0.07512,0.34405 0.01743,0.49418l6.13086,10.25781l-4.79492,8.23438c-0.09004,0.15456 -0.09077,0.34542 -0.00193,0.50067c0.08885,0.15525 0.25377,0.2513 0.43265,0.25197c0.17887,0.00067 0.34451,-0.09415 0.43452,-0.24873l4.94141,-8.49023c0.09174,-0.15703 0.09099,-0.35149 -0.00195,-0.50781l-6.28125,-10.50977c-0.09413,-0.16367 -0.27242,-0.26037 -0.46094,-0.25zM32.25781,53.99414c-0.18244,-0.00223 -0.35161,0.09508 -0.44141,0.25391l-1.74609,3c-0.09698,0.15456 -0.10207,0.34967 -0.01328,0.50908c0.08879,0.15941 0.25735,0.2578 0.43981,0.25672c0.18246,-0.00108 0.34985,-0.10145 0.43675,-0.2619l1.74805,-3c0.0925,-0.15375 0.09553,-0.34527 0.00795,-0.50187c-0.08758,-0.1566 -0.25236,-0.25427 -0.43178,-0.25594zM29.3457,58.99414c-0.18244,-0.00223 -0.35161,0.09508 -0.44141,0.25391l-0.58203,1c-0.09004,0.15456 -0.09077,0.34542 -0.00193,0.50067c0.08885,0.15525 0.25377,0.2513 0.43265,0.25197c0.17887,0.00067 0.34451,-0.09415 0.43452,-0.24873l0.58203,-1c0.0925,-0.15375 0.09553,-0.34527 0.00795,-0.50187c-0.08758,-0.1566 -0.25236,-0.25427 -0.43178,-0.25594z"></path></g></g></g></svg>